# xmcd CD database file
#
# Track frame offsets:
#	150
#	17908
#	33145
#
# Disc length: 673 seconds
#
# Revision: 0
# Processed by: cddbd v1.5PL3 Copyright (c) Steve Scherf et al.
# Submitted via: CDex 1.51
#
DISCID=18029f03
DTITLE=森高千里 - 電話
DYEAR=1998
DGENRE=JPop
TTITLE0=電話
TTITLE1=DRAGON
TTITLE2=電話 (ORIGINAL KARAOKE)
EXTD=YEAR: 1998
EXTT0=
EXTT1=
EXTT2=
PLAYORDER=
